<svg width="132" height="28" viewBox="0 0 132 28" fill="none" xmlns="http://www.w3.org/2000/svg">
<path d="M16.821 0.818181H23.1364V17.706C23.1364 19.6577 22.6719 21.358 21.7429 22.8068C20.8139 24.2472 19.5185 25.3636 17.8565 26.1562C16.1946 26.9403 14.2642 27.3324 12.0653 27.3324C9.84091 27.3324 7.89773 26.9403 6.2358 26.1562C4.57386 25.3636 3.28267 24.2472 2.36222 22.8068C1.44176 21.358 0.981534 19.6577 0.981534 17.706V0.818181H7.30966V17.1562C7.30966 18.0597 7.50568 18.8651 7.89773 19.5724C8.2983 20.2798 8.85653 20.8338 9.57244 21.2344C10.2884 21.6349 11.1193 21.8352 12.0653 21.8352C13.0114 21.8352 13.8381 21.6349 14.5455 21.2344C15.2614 20.8338 15.8196 20.2798 16.2202 19.5724C16.6207 18.8651 16.821 18.0597 16.821 17.1562V0.818181ZM51.8143 13.9091C51.8143 16.7898 51.2603 19.2315 50.1523 21.2344C49.0444 23.2372 47.5444 24.7585 45.6523 25.7983C43.7688 26.8381 41.6552 27.358 39.3114 27.358C36.9592 27.358 34.8413 26.8338 32.9577 25.7855C31.0742 24.7372 29.5785 23.2159 28.4705 21.2216C27.3711 19.2187 26.8214 16.7812 26.8214 13.9091C26.8214 11.0284 27.3711 8.58665 28.4705 6.58381C29.5785 4.58097 31.0742 3.05966 32.9577 2.01989C34.8413 0.980113 36.9592 0.460226 39.3114 0.460226C41.6552 0.460226 43.7688 0.980113 45.6523 2.01989C47.5444 3.05966 49.0444 4.58097 50.1523 6.58381C51.2603 8.58665 51.8143 11.0284 51.8143 13.9091ZM45.3455 13.9091C45.3455 12.2045 45.1026 10.7642 44.6168 9.58807C44.1396 8.41193 43.4492 7.52131 42.5458 6.91619C41.6509 6.31108 40.5728 6.00852 39.3114 6.00852C38.0586 6.00852 36.9805 6.31108 36.0771 6.91619C35.1737 7.52131 34.479 8.41193 33.9933 9.58807C33.516 10.7642 33.2773 12.2045 33.2773 13.9091C33.2773 15.6136 33.516 17.054 33.9933 18.2301C34.479 19.4062 35.1737 20.2969 36.0771 20.902C36.9805 21.5071 38.0586 21.8097 39.3114 21.8097C40.5728 21.8097 41.6509 21.5071 42.5458 20.902C43.4492 20.2969 44.1396 19.4062 44.6168 18.2301C45.1026 17.054 45.3455 15.6136 45.3455 13.9091ZM55.5089 27V0.818181H61.837V21.8608H72.729V27H55.5089ZM81.6428 21.848L81.6683 14.3949H82.5376L88.0604 7.36364H95.1428L86.9354 17.4375H85.2862L81.6428 21.848ZM76.005 27V0.818181H82.2564V27H76.005ZM88.201 27L83.0618 18.8438L87.1783 14.4077L95.424 27H88.201ZM110.049 18.5241V7.36364H116.288V27H110.33V23.3438H110.126C109.691 24.5455 108.95 25.5 107.901 26.2074C106.862 26.9062 105.604 27.2557 104.13 27.2557C102.792 27.2557 101.616 26.9489 100.602 26.3352C99.5874 25.7216 98.799 24.8651 98.2365 23.7656C97.674 22.6577 97.3885 21.3622 97.38 19.8793V7.36364H103.631V18.652C103.64 19.7173 103.921 20.5568 104.475 21.1705C105.029 21.7841 105.783 22.0909 106.738 22.0909C107.36 22.0909 107.918 21.9545 108.413 21.6818C108.915 21.4006 109.312 20.9957 109.602 20.4673C109.9 19.9304 110.049 19.2827 110.049 18.5241ZM131.35 7.36364V11.9659H118.963V7.36364H131.35ZM121.558 2.65909H127.809V20.8253C127.809 21.2088 127.869 21.5199 127.988 21.7585C128.116 21.9886 128.299 22.1548 128.538 22.2571C128.777 22.3509 129.062 22.3977 129.395 22.3977C129.633 22.3977 129.885 22.3764 130.149 22.3338C130.422 22.2827 130.626 22.2401 130.762 22.206L131.708 26.7188C131.41 26.804 130.988 26.9105 130.443 27.0384C129.906 27.1662 129.262 27.2472 128.512 27.2812C127.047 27.3494 125.789 27.179 124.741 26.7699C123.701 26.3523 122.904 25.7045 122.35 24.8267C121.805 23.9489 121.541 22.8452 121.558 21.5156V2.65909Z" fill="#ED6D25"/>
</svg>
